<?xml version="1.0" encoding="UTF-8" standalone="no"?>
<!-- Created with Inkscape (http://www.inkscape.org/) -->

<svg
   width="209.31143mm"
   height="234.43513mm"
   viewBox="0 0 209.31143 234.43513"
   version="1.1"
   id="svg1"
   xml:space="preserve"
   inkscape:version="1.4.2 (ebf0e940d0, 2025-05-08)"
   sodipodi:docname="mini-market-logosvg"
   xmlns:inkscape="http://www.inkscape.org/namespaces/inkscape"
   xmlns:sodipodi="http://sodipodi.sourceforge.net/DTD/sodipodi-0.dtd"
   xmlns="http://www.w3.org/2000/svg"
   xmlns:svg="http://www.w3.org/2000/svg"><sodipodi:namedview
     id="namedview1"
     pagecolor="#ffffff"
     bordercolor="#000000"
     borderopacity="0.25"
     inkscape:showpageshadow="2"
     inkscape:pageopacity="0.0"
     inkscape:pagecheckerboard="0"
     inkscape:deskcolor="#d1d1d1"
     inkscape:document-units="mm"
     inkscape:zoom="0.39197531"
     inkscape:cx="102.04724"
     inkscape:cy="408.18898"
     inkscape:window-width="1920"
     inkscape:window-height="1044"
     inkscape:window-x="1920"
     inkscape:window-y="0"
     inkscape:window-maximized="1"
     inkscape:current-layer="layer2" /><defs
     id="defs1" /><g
     inkscape:label="Camada 1"
     inkscape:groupmode="layer"
     id="layer1"
     style="display:none"
     transform="translate(-0.13084561,-33.737262)"><rect
       style="fill:#000000;fill-opacity:1;fill-rule:evenodd;stroke:#489061;stroke-width:1;stroke-linecap:round;stroke-linejoin:round;stroke-miterlimit:5.3;stroke-dasharray:none;stroke-opacity:1"
       id="rect14"
       width="158.625"
       height="162.33751"
       x="33.075001"
       y="57.037498"
       sodipodi:insensitive="true" /></g><g
     inkscape:groupmode="layer"
     id="layer2"
     inkscape:label="logo"
     style="display:inline;opacity:1"
     transform="translate(-0.13084561,-33.737262)"><path
       id="path1"
       style="display:inline;opacity:1;fill:#489061;fill-opacity:1;fill-rule:evenodd;stroke:#ffffff;stroke-width:0;stroke-linecap:square;stroke-miterlimit:5.3;stroke-dasharray:none"
       d="M 23.047327,33.737316 C 15.274695,36.068449 14.731395,45.431093 11.690564,51.715025 7.9395878,62.078814 3.5874414,72.333341 0.20899024,82.765086 c -0.0160255,7.677987 -0.94452095,16.074995 4.04698766,22.565164 3.1416441,5.55184 9.1645651,8.85465 15.1211531,10.10863 0.08482,44.11126 -0.169552,88.25747 0.127177,132.34719 1.244893,10.55607 10.509108,19.23303 21.068587,20.04065 17.938213,0.69065 35.997787,0.0985 53.982587,0.29555 25.143588,-0.11198 50.348078,0.22471 75.453888,-0.16725 11.26631,-2.03912 20.52523,-12.68324 19.57673,-24.33726 V 115.43883 c 5.62723,-1.18254 10.58504,-3.96724 14.2757,-8.42366 6.41615,-6.92822 5.81593,-17.080647 5.2539,-25.776146 C 203.24162,66.35065 198.06814,51.143636 191.75264,36.456056 187.04933,32.084713 180.22193,34.715328 174.44963,33.989244 123.98202,33.905273 73.514932,33.821223 23.047336,33.737262 Z m 2.039387,10.059181 H 48.741041 L 39.768672,82.67678 h -28.2771 z m 33.985505,0.271999 h 23.382323 l -2.44678,39.424282 H 50.371847 Z m 101.685701,0 h 23.65432 l 14.13796,39.424282 h -29.9079 z m -67.972177,0.271996 h 23.926307 l 2.71881,38.880264 H 90.066952 Z m 33.714677,0 h 23.65434 l 9.24433,38.880264 H 130.03522 Z M 10.404759,93.745051 h 28.207628 c 0,0 -2.242999,11.758269 -13.662259,11.758269 -11.419254,0 -14.545369,-11.758269 -14.545369,-11.758269 z m 40.321514,0 h 28.207619 c 0,0 -2.24299,11.758269 -13.662256,11.758269 -11.419254,0 -14.545363,-11.758269 -14.545363,-11.758269 z m 40.894937,0 h 28.2088 c 0,0 -2.24302,11.758269 -13.66227,11.758269 -11.419266,0 -14.54653,-11.758269 -14.54653,-11.758269 z m 39.16876,0 h 28.20763 c 0,0 -2.24302,11.758269 -13.66228,11.758269 -11.41922,0 -14.54535,-11.758269 -14.54535,-11.758269 z m 40.38626,0 h 28.20881 c 0,0 -2.24301,11.758269 -13.66226,11.758269 -11.41924,0 -14.54655,-11.758269 -14.54655,-11.758269 z m -86.002885,12.110339 0.612287,0.61112 1.290518,1.5637 1.631972,1.63197 2.718791,1.97111 2.583381,1.63078 2.106515,0.95141 1.835695,0.61231 2.243076,0.2037 1.83452,0.40739 2.51509,0.27199 h 1.97107 l 1.4283,-0.2037 1.56252,-0.2037 2.03938,-0.54397 2.78708,-0.74772 1.56371,-0.61111 2.10649,-1.15626 1.42712,-1.01971 1.69909,-1.0197 1.29168,-1.29052 1.56369,-1.97111 0.816,-0.95257 1.0197,0.95257 1.56249,1.76624 1.6991,1.42827 1.8357,1.49541 2.10769,1.15509 1.29051,0.67942 2.37967,0.95138 1.49539,0.47688 2.51511,0.4757 2.8542,0.27201 1.63196,0.0671 3.05791,-0.27199 2.31139,-0.33909 2.92252,-0.8843 2.10769,-0.61111 3.19448,-1.83569 1.83568,-1.29169 2.4468,-1.83452 1.83451,-2.24308 0.40858,-0.27198 0.88311,1.63077 1.76739,1.56372 1.35997,1.29169 1.90283,1.0868 1.35998,0.88427 2.51389,1.42712 0.95259,0.61229 1.4954,0.47571 1.56251,0.27198 V 247.9368 l -1.63081,3.03787 -1.76738,2.3114 -2.85541,2.31139 -2.85418,1.49539 -1.35999,0.27081 H 40.312664 l -3.534785,-1.08679 -1.631983,-1.22341 -1.902801,-1.76739 -1.630805,-2.3114 -1.224577,-3.26276 -0.542816,-1.2234 0.407409,-131.11674 2.039388,-0.54397 1.630804,-0.67943 3.26279,-1.42828 1.835684,-1.29168 1.291692,-0.95141 1.155105,-0.88311 0.883107,-0.81599 1.359986,-1.56369 0.679404,-1.01851 1.495396,1.63082 2.039393,1.97107 3.19449,2.37849 2.311381,1.088 2.446803,1.08801 4.689885,1.01968 1.495395,0.0671 2.243093,0.20373 2.311392,-0.0671 3.26279,-0.54398 2.92249,-0.61231 1.902794,-0.61108 1.971093,-0.74772 2.175994,-1.35998 2.650491,-1.7662 2.378514,-2.71998 0.815987,-1.15511 z" /></g><g
     inkscape:groupmode="layer"
     id="layer5"
     inkscape:label="details"
     transform="translate(-0.13084561,-33.737262)"><rect
       style="fill:none;fill-opacity:1;fill-rule:evenodd;stroke:#489061;stroke-width:11.3812;stroke-linecap:round;stroke-linejoin:round;stroke-miterlimit:5.3;stroke-dasharray:none;stroke-opacity:1"
       id="rect12"
       width="82.552597"
       height="45.739372"
       x="63.768562"
       y="129.90129" /><rect
       style="fill:#489061;fill-opacity:1;fill-rule:evenodd;stroke:#489061;stroke-width:3.07865;stroke-linecap:round;stroke-linejoin:round;stroke-miterlimit:5.3;stroke-dasharray:none;stroke-opacity:1"
       id="rect13"
       width="14.833413"
       height="9.65732"
       x="69.192322"
       y="191.76379" /><rect
       style="fill:#489061;fill-opacity:1;fill-rule:evenodd;stroke:#489061;stroke-width:3.07865;stroke-linecap:round;stroke-linejoin:round;stroke-miterlimit:5.3;stroke-dasharray:none;stroke-opacity:1"
       id="rect13-9"
       width="14.833413"
       height="9.65732"
       x="97.760841"
       y="191.84106" /><rect
       style="fill:#489061;fill-opacity:1;fill-rule:evenodd;stroke:#489061;stroke-width:3.07865;stroke-linecap:round;stroke-linejoin:round;stroke-miterlimit:5.3;stroke-dasharray:none;stroke-opacity:1"
       id="rect13-7"
       width="14.833413"
       height="9.65732"
       x="126.42664"
       y="192.03613" /><rect
       style="fill:#489061;fill-opacity:1;fill-rule:evenodd;stroke:#489061;stroke-width:3.07865;stroke-linecap:round;stroke-linejoin:round;stroke-miterlimit:5.3;stroke-dasharray:none;stroke-opacity:1"
       id="rect13-8"
       width="14.833413"
       height="9.65732"
       x="69.248779"
       y="213.27248" /><rect
       style="fill:#489061;fill-opacity:1;fill-rule:evenodd;stroke:#489061;stroke-width:3.07865;stroke-linecap:round;stroke-linejoin:round;stroke-miterlimit:5.3;stroke-dasharray:none;stroke-opacity:1"
       id="rect13-1"
       width="14.833413"
       height="9.65732"
       x="97.737282"
       y="213.33156" /><rect
       style="fill:#489061;fill-opacity:1;fill-rule:evenodd;stroke:#489061;stroke-width:4.36778;stroke-linecap:round;stroke-linejoin:round;stroke-miterlimit:5.3;stroke-dasharray:none;stroke-opacity:1"
       id="rect13-1-0"
       width="47.66608"
       height="6.0491805"
       x="80.685333"
       y="238.83691" /><rect
       style="fill:#489061;fill-opacity:1;fill-rule:evenodd;stroke:#489061;stroke-width:3.07865;stroke-linecap:round;stroke-linejoin:round;stroke-miterlimit:5.3;stroke-dasharray:none;stroke-opacity:1"
       id="rect13-94"
       width="14.833413"
       height="9.65732"
       x="126.26712"
       y="213.16008" /></g></svg>
